<svg width="43" height="43" viewBox="0 0 43 43" fill="none" xmlns="http://www.w3.org/2000/svg">
<rect width="43" height="43" fill="#79D577"/>
<path d="M37.2321 28.284C34.9174 27.3587 32.4042 27.0576 29.9391 27.4078V25.8954L29.0427 26.1512C26.0893 26.9951 23.6033 29.0671 22.2045 31.7784V25.2112C22.2045 23.7719 22.8493 22.4309 23.973 21.5317C24.8056 20.8656 25.851 20.4993 26.9171 20.4993H27.1265C28.4329 20.4993 29.525 19.5994 29.8392 18.3899H29.8828C31.2616 18.3899 32.6408 18.5595 33.9794 18.8942L35.5642 19.2908V18.3899C35.5642 16.3876 34.5617 14.5847 32.9477 13.5067C33.1019 13.3858 33.2516 13.2591 33.391 13.1201C34.3385 12.1721 34.8611 10.9114 34.8611 9.57105C34.8611 8.34845 34.6651 7.14026 34.2781 5.98152L33.8304 4.63806L32.7101 5.38481C31.8666 5.9465 30.908 6.27988 29.9096 6.38734C29.9202 6.27198 29.9391 6.15868 29.9391 6.04126V5.22928C29.9391 4.04307 29.5467 2.8675 28.8353 1.91819C27.9859 0.784856 26.6321 0.108149 25.2162 0.108149C24.5172 0.108149 23.8175 0.273635 23.1933 0.585723L22.9077 0.728549L21.4509 0L20.5253 0.616623C19.165 1.52302 17.4188 1.75648 15.8707 1.23977L14.1136 0.654046L12.3396 4.20135C12.0426 4.79531 11.8479 5.43803 11.7453 6.09413C11.2341 5.91972 10.7462 5.68626 10.2919 5.38309L9.17166 4.63669L8.72395 5.98015C8.33771 7.13958 8.14166 8.34776 8.14166 9.57105C8.14166 10.9121 8.66421 12.1721 9.61181 13.1201C9.7512 13.2591 9.90089 13.3858 10.0551 13.5067C8.44139 14.5854 7.43852 16.3876 7.43852 18.3899V19.2908L9.02334 18.8949C10.3623 18.5595 11.7412 18.3899 13.12 18.3899H14.1397C14.2142 18.544 14.2969 18.6951 14.3934 18.8393C15.0859 19.8785 16.246 20.4993 17.4957 20.4993C18.8309 20.4993 20.0319 21.2412 20.629 22.436L20.7982 22.7749V27.5596C19.3992 24.8483 16.9128 22.7763 13.9601 21.9324L13.0637 21.6766V23.1889C10.5992 22.8388 8.08536 23.1399 5.77062 24.0651L5.11829 24.3267L5.61749 25.5754C6.3148 27.3192 7.53568 28.7894 9.10231 29.7943L7.71078 31.1858L9.33714 32.1619C11.1884 33.2726 13.3071 33.859 15.4642 33.859C16.7459 33.859 18.0131 33.6537 19.2296 33.2482L20.7982 32.725V42.9999H22.2045V36.9438L23.7725 37.4664C24.9896 37.8726 26.2569 38.0779 27.5385 38.0779C29.6957 38.0779 31.8151 37.4915 33.6656 36.3808L35.2923 35.4047L33.9008 34.0132C35.4671 33.0075 36.6873 31.5381 37.3853 29.7936L37.8845 28.5449L37.2321 28.284ZM34.0639 17.4673C32.694 17.146 31.2891 16.9836 29.8828 16.9836H29.8392C29.6686 16.3271 29.2734 15.7623 28.7326 15.3833C29.4619 14.9651 30.2402 14.6451 31.0594 14.4398C31.2091 14.4024 31.3526 14.3492 31.4971 14.2984C32.832 14.8941 33.7748 16.071 34.0639 17.4673ZM22.0528 10.7463C23.103 10.2265 24.2576 9.95215 25.4425 9.95215H26.0282C26.3475 9.95215 26.6661 9.91301 26.9768 9.83542C27.2433 9.76881 27.4922 9.66821 27.7318 9.55217C27.5196 11.4199 26.9353 13.2296 26.0093 14.8741H25.3546L22.0528 10.7463ZM18.6888 8.79272V9.24901H18.5209C17.5407 9.24901 16.6316 8.76251 16.0881 7.94675C15.9501 7.73938 15.8769 7.49836 15.8769 7.24876C15.8769 6.91264 16.0077 6.59677 16.2453 6.35919L16.5217 6.0828L18.6888 8.79272ZM17.2825 10.4678C17.6798 10.5866 18.0948 10.6553 18.5209 10.6553H18.6888V11.9768C18.6888 12.4942 18.7846 12.9961 18.958 13.4679H17.2825V10.4678ZM18.6916 6.54493C18.6943 6.24657 18.7218 5.95131 18.7647 5.65948C20.2596 7.05683 22.0476 8.07928 23.9857 8.66637C22.9962 8.82671 22.0435 9.15081 21.1577 9.62667L18.6916 6.54493ZM21.6531 6.09551L21.9978 5.06208C23.2606 5.2231 24.3617 5.9956 24.9426 7.15743L25.1239 7.51999C23.8971 7.23193 22.7271 6.75024 21.6531 6.09551ZM20.0951 10.5506L23.5538 14.8741H22.9928C22.2186 14.8741 21.4907 14.5727 20.9438 14.0254C20.3969 13.4785 20.0951 12.75 20.0951 11.9768V10.5506ZM33.0662 6.81753C33.324 7.71294 33.4548 8.63685 33.4548 9.57105C33.4548 10.5365 33.0785 11.4436 32.3967 12.1258C31.9332 12.5882 31.3533 12.9168 30.7181 13.0758C29.7218 13.3254 28.779 13.7233 27.9001 14.2448C28.7326 12.3675 29.1831 10.3398 29.2253 8.27669C29.3266 8.13181 29.4217 7.9828 29.5024 7.82521C30.7597 7.78161 31.9795 7.44549 33.0662 6.81753ZM21.306 1.78738L21.5522 1.62293L22.9077 2.30066L23.8216 1.84369C24.2522 1.62842 24.7345 1.51444 25.2162 1.51444C26.1927 1.51444 27.1252 1.98068 27.7109 2.7621C28.2403 3.46868 28.5328 4.34555 28.5328 5.22928V6.04195C28.5328 6.74028 28.2424 7.38025 27.7672 7.83997C27.4534 7.8386 27.142 7.81697 26.8313 7.79019L26.2006 6.52879C25.3048 4.73694 23.504 3.62386 21.5014 3.62386H20.9943L20.4515 5.25194C20.0086 4.90037 19.588 4.51824 19.1959 4.10212C19.4651 3.45803 19.8369 2.85686 20.3059 2.32332C20.652 2.16985 20.9888 1.99819 21.306 1.78738ZM13.5982 4.83136L14.8263 2.37448L15.4261 2.5743C16.3312 2.87574 17.2897 2.9657 18.2284 2.87231C17.8696 3.53975 17.608 4.25388 17.4535 4.99719L16.6377 3.97784L15.2503 5.3649C14.747 5.86856 14.47 6.53703 14.47 7.24876C14.47 7.77611 14.6248 8.28802 14.9173 8.7268C15.1824 9.12403 15.5099 9.46222 15.8762 9.74546V11.6273L15.8608 11.6194C14.1352 10.7566 13.0637 9.02275 13.0637 7.09391C13.0637 6.31284 13.2487 5.53038 13.5982 4.83136ZM9.54795 9.57105C9.54795 8.63753 9.67876 7.71294 9.93694 6.81822C10.4894 7.13683 11.0758 7.38231 11.6897 7.55467C11.85 9.8313 13.167 11.8446 15.2321 12.8773L15.8762 13.1994V13.6993C15.5648 13.8208 15.2823 13.9925 15.0241 14.1978C14.1668 13.6986 13.2501 13.3168 12.284 13.0758C11.6491 12.9168 11.0689 12.5882 10.6054 12.1258C9.92424 11.4429 9.54795 10.5358 9.54795 9.57105ZM13.12 16.9836C11.7137 16.9836 10.3081 17.146 8.93922 17.4673C9.22796 16.0703 10.1711 14.8934 11.5049 14.2977C11.6498 14.3482 11.7937 14.4017 11.9437 14.4398C12.7087 14.6311 13.4406 14.9215 14.1283 15.2995C13.9048 15.7448 13.7668 16.2399 13.7668 16.7707C13.7668 16.8425 13.7781 16.9129 13.7823 16.9836H13.12ZM17.4957 19.093C16.7174 19.093 15.995 18.7064 15.5635 18.0589C15.308 17.6764 15.1731 17.2304 15.1731 16.7707C15.1731 15.7249 16.0239 14.8741 17.0697 14.8741H19.8173C19.8616 14.9229 19.9025 14.9734 19.9495 15.0197C20.7625 15.8327 21.843 16.2804 22.9928 16.2804H27.1265C27.9021 16.2804 28.5328 16.9111 28.5328 17.6867C28.5328 18.4623 27.9021 19.093 27.1265 19.093H26.9171C25.5324 19.093 24.1756 19.5692 23.0948 20.4341C22.6117 20.8207 22.2038 21.2749 21.865 21.7706C21.0217 20.1189 19.3532 19.093 17.4957 19.093ZM18.7853 31.9137C15.9071 32.874 12.6637 32.5169 10.0612 30.9558L9.97917 30.9067L11.438 29.4469L10.5656 29.0101C8.92995 28.1927 7.65036 26.8152 6.95339 25.1267C8.94884 24.4524 11.083 24.2787 13.167 24.6268L14.47 24.8455V23.5903C16.9382 24.5691 18.9449 26.5484 19.9368 29.0294L20.2929 29.9193L20.079 29.7528C17.0518 27.3979 13.4406 25.9023 9.63447 25.4271L9.46006 26.8221C13.0146 27.2664 16.3881 28.6637 19.2155 30.8631L20.0319 31.4979L18.7853 31.9137ZM32.4375 33.2297L31.5648 33.6664L33.0239 35.1262L32.9422 35.1753C30.3398 36.7365 27.0977 37.0935 24.2178 36.1332L22.9702 35.7175L23.7866 35.0826C26.6139 32.8833 29.9875 31.4859 33.542 31.0416L33.3676 29.6467C29.5621 30.1218 25.951 31.6181 22.9231 33.9723L22.7096 34.1381L23.0659 33.2482C24.0582 30.7666 26.0649 28.788 28.5328 27.8092V29.0644L29.8358 28.8471C31.9205 28.4999 34.0546 28.6726 36.0494 29.3469C35.3527 31.0354 34.0721 32.4122 32.4375 33.2297Z" fill="white"/>
</svg>
